<?xml version="1.0" encoding="utf-8"?>
<!-- Generator: Adobe Illustrator 22.1.0, SVG Export Plug-In . SVG Version: 6.00 Build 0)  -->
<svg version="1.1" id="Слой_1" xmlns="http://www.w3.org/2000/svg" xmlns:xlink="http://www.w3.org/1999/xlink" x="0px" y="0px"
	 viewBox="0 0 102.8 40.8" style="enable-background:new 0 0 102.8 40.8; fill:white" xml:space="preserve">
<path d="M96.7,1.9h-7.3c-3.3,0-6,2.7-6,6v3.4c0,3.3-2.7,6-6,6H61.7c-3.3,0-6-2.7-6-6V7.9c0-3.3-2.7-6-6-6H28.6c-3.3,0-6,2.7-6,6v9.6
	c0,3.3,2.7,6,6,6h15c3.3,0,6,2.7,6,6v3.4c0,3.3,2.7,6,6,6h31.2c3.3,0,6-2.7,6-6v-4.4c0-2.8,2.2-5,5-5s5-2.2,5-5V7.9
	C102.7,4.6,100,1.9,96.7,1.9z"/>
<g>
	<path d="M14.1,8h-1.3l-1.7-4.1L9.4,8H8.1L5.6,2.1h0.3l2.2,5.3l2.2-5.3h0.3l0.6,1.5l1.6,3.8L15,2.1h1.5L14.1,8z"/>
	<path d="M13.6,16.7v1.5h-5v-5.9h5v1.5H8.8v1.4h4.1v0.2H8.8v1.4H13.6z"/>
	<path d="M8.9,22.4h0.2v4.4h4.4v1.5H8.9V22.4z"/>
	<path d="M10.9,33.3l-3.1,5.1H6.2l3.6-5.9h1.4v5.1l3.1-5.1h1.4v5.9h-0.2v-5.1l-3.1,5.1h-1.4V33.3z"/>
</g>
</svg>
